<svg width="166" height="65" viewBox="0 0 166 65" fill="none" xmlns="http://www.w3.org/2000/svg">
<path d="M56.912 46H61.648V35.76H70.608V46H75.312V22.32H70.608V31.664H61.648V22.32H56.912V46ZM84.3308 46H89.0668V22.32H84.3308V46ZM98.0933 46H106.541C111.725 46 115.693 43.792 115.693 39.024C115.693 35.856 113.805 34.032 111.277 33.424V33.296C113.293 32.56 114.477 30.352 114.477 28.176C114.477 23.76 110.765 22.32 105.901 22.32H98.0933V46ZM102.829 31.952V25.968H105.645C108.493 25.968 109.869 26.768 109.869 28.848C109.869 30.768 108.589 31.952 105.581 31.952H102.829ZM102.829 42.352V35.472H106.125C109.389 35.472 111.085 36.464 111.085 38.768C111.085 41.2 109.325 42.352 106.125 42.352H102.829ZM120.034 46H124.834L128.226 33.68C128.93 31.216 129.602 28.496 130.242 25.936H130.37C131.042 28.464 131.714 31.216 132.418 33.68L135.81 46H140.771L133.186 22.32H127.618L120.034 46ZM124.738 39.92H136.002V36.272H124.738V39.92ZM146.775 46H151.511V37.072H154.999C159.959 37.072 163.895 34.768 163.895 29.488C163.895 24.048 159.959 22.32 154.999 22.32H146.775V46ZM151.511 33.328V26.096H154.551C157.623 26.096 159.287 26.96 159.287 29.488C159.287 32.016 157.623 33.328 154.551 33.328H151.511ZM159.639 46H164.919L157.431 32.88L154.135 35.856L159.639 46Z" fill="#AB724E"/>
<path d="M2.26293 57.4203C3.7581 64.1485 13.269 65.4153 17.8376 64.8961C21.6793 64.6885 26.2479 64.8961 30.9203 63.8059C32.5038 63.4364 34.191 62.4042 36.6829 57.4203C39.1749 52.4364 39.1749 45.2721 38.5519 40.1324C37.9289 34.9928 35.437 23.6233 34.191 15.5245C32.945 7.42564 25.4692 3.37622 17.8376 0.728528C11.7323 -1.38963 8.64854 1.61109 7.8698 3.37622C6.00085 9.96949 1.95144 25.3676 0.705464 34.2141C-0.852002 45.2721 0.393971 49.01 2.26293 57.4203Z" fill="#AB724E"/>
<path d="M15.7305 13.6555C7.38251 10.1668 7.3203 3.06468 10.9024 1.04002C14.4845 -0.984645 31.4609 6.64689 33.3299 12.2538C35.1988 17.8607 26.1656 18.0164 15.7305 13.6555Z" fill="#D6AE95"/>
</svg>
